HIERARCHY
ROOT Hips
{
	OFFSET 0.000000 35.082581 0.000000
	CHANNELS 6 Xposition Yposition Zposition Xrotation Yrotation Zrotation 
	JOINT Spine
	{
		OFFSET 0.000000 6.876099 0.125700
		CHANNELS 3 Xrotation Yrotation Zrotation
		JOINT Spine1
		{
			OFFSET 0.000000 5.730043 0.104720
			CHANNELS 3 Xrotation Yrotation Zrotation
			JOINT Spine1_split
			{
				OFFSET 0.000000 5.730043 0.104720
				CHANNELS 3 Xrotation Yrotation Zrotation
				JOINT Spine2
				{
					OFFSET 0.000000 5.730043 0.104720
					CHANNELS 3 Xrotation Yrotation Zrotation
					JOINT Neck
					{
						OFFSET 0.000000 10.314075 0.188496
						CHANNELS 3 Xrotation Yrotation Zrotation
						JOINT Head
						{
							OFFSET 0.000000 7.643700 -2.377400
							CHANNELS 3 Xrotation Yrotation Zrotation
							JOINT HeadTop_End
							{
								OFFSET 0.000000 43.788605 -13.619600
								CHANNELS 3 Xrotation Yrotation Zrotation
								End Site
								{
									OFFSET 0.000000 0.000000 0.000000
								}
							}
						}
					}
					JOINT LeftShoulder
					{
						OFFSET 2.196100 4.412489 0.087492
						CHANNELS 3 Xrotation Yrotation Zrotation
						JOINT LeftShoulder_split
						{
							OFFSET 2.196100 4.412489 0.087492
							CHANNELS 3 Xrotation Yrotation Zrotation
							JOINT LeftArm
							{
								OFFSET 8.771219 -2.981674 -0.026999
								CHANNELS 3 Xrotation Yrotation Zrotation
								JOINT LeftForeArm
								{
									OFFSET 8.512804 0.000000 -0.000000
									CHANNELS 3 Xrotation Yrotation Zrotation
									JOINT LeftHand
									{
										OFFSET 18.484802 0.000000 -0.000000
										CHANNELS 3 Xrotation Yrotation Zrotation
										JOINT LeftHandThumb1
										{
											OFFSET 2.499420 -1.158070 2.653252
											CHANNELS 3 Xrotation Yrotation Zrotation
											JOINT LeftHandThumb2
											{
												OFFSET 2.370079 -1.368366 1.368366
												CHANNELS 3 Xrotation Yrotation Zrotation
												JOINT LeftHandThumb3
												{
													OFFSET 2.676727 -1.545410 1.545409
													CHANNELS 3 Xrotation Yrotation Zrotation
													JOINT LeftHandThumb4
													{
														OFFSET 1.692226 -0.977005 0.977007
														CHANNELS 3 Xrotation Yrotation Zrotation
														End Site
														{
															OFFSET 0.000000 0.000000 0.000000
														}
													}
												}
											}
										}
										JOINT LeftHandIndex1
										{
											OFFSET 7.924831 -0.457527 2.345128
											CHANNELS 3 Xrotation Yrotation Zrotation
											JOINT LeftHandIndex2
											{
												OFFSET 3.643303 0.000000 0.000000
												CHANNELS 3 Xrotation Yrotation Zrotation
												JOINT LeftHandIndex3
												{
													OFFSET 3.810799 0.000000 0.000000
													CHANNELS 3 Xrotation Yrotation Zrotation
													JOINT LeftHandIndex4
													{
														OFFSET 2.403702 0.000000 0.000000
														CHANNELS 3 Xrotation Yrotation Zrotation
														End Site
														{
															OFFSET 0.000000 0.000000 0.000000
														}
													}
												}
											}
										}
										JOINT LeftHandMiddle1
										{
											OFFSET 8.563995 0.000000 -0.000000
											CHANNELS 3 Xrotation Yrotation Zrotation
											JOINT LeftHandMiddle2
											{
												OFFSET 3.861618 0.000000 0.000000
												CHANNELS 3 Xrotation Yrotation Zrotation
												JOINT LeftHandMiddle3
												{
													OFFSET 3.701603 0.000000 0.000000
													CHANNELS 3 Xrotation Yrotation Zrotation
													JOINT LeftHandMiddle4
													{
														OFFSET 2.322544 0.000000 0.000000
														CHANNELS 3 Xrotation Yrotation Zrotation
														End Site
														{
															OFFSET 0.000000 0.000000 0.000000
														}
													}
												}
											}
										}
										JOINT LeftHandRing1
										{
											OFFSET 8.426460 -0.424637 -3.286992
											CHANNELS 3 Xrotation Yrotation Zrotation
											JOINT LeftHandRing2
											{
												OFFSET 3.126408 0.000000 0.000000
												CHANNELS 3 Xrotation Yrotation Zrotation
												JOINT LeftHandRing3
												{
													OFFSET 3.085026 0.000000 0.000000
													CHANNELS 3 Xrotation Yrotation Zrotation
													JOINT LeftHandRing4
													{
														OFFSET 1.644005 0.000000 0.000000
														CHANNELS 3 Xrotation Yrotation Zrotation
														End Site
														{
															OFFSET 0.000000 0.000000 0.000000
														}
													}
												}
											}
										}
									}
								}
							}
						}
					}
					JOINT RightShoulder
					{
						OFFSET -2.196100 4.412496 0.070690
						CHANNELS 3 Xrotation Yrotation Zrotation
						JOINT RightShoulder_split
						{
							OFFSET -2.196100 4.412496 0.070690
							CHANNELS 3 Xrotation Yrotation Zrotation
							JOINT RightArm
							{
								OFFSET -8.771282 -2.981682 -0.094208
								CHANNELS 3 Xrotation Yrotation Zrotation
								JOINT RightForeArm
								{
									OFFSET -8.494598 0.000000 0.000000
									CHANNELS 3 Xrotation Yrotation Zrotation
									JOINT RightHand
									{
										OFFSET -18.483803 0.000000 0.000001
										CHANNELS 3 Xrotation Yrotation Zrotation
										JOINT RightHandThumb1
										{
											OFFSET -2.527351 -1.008072 2.575253
											CHANNELS 3 Xrotation Yrotation Zrotation
											JOINT RightHandThumb2
											{
												OFFSET -2.321518 -1.340328 1.340329
												CHANNELS 3 Xrotation Yrotation Zrotation
												JOINT RightHandThumb3
												{
													OFFSET -2.657753 -1.534454 1.534455
													CHANNELS 3 Xrotation Yrotation Zrotation
													JOINT RightHandThumb4
													{
														OFFSET -1.807510 -1.043568 1.043567
														CHANNELS 3 Xrotation Yrotation Zrotation
														End Site
														{
															OFFSET 0.000000 0.000000 0.000000
														}
													}
												}
											}
										}
										JOINT RightHandIndex1
										{
											OFFSET -8.811420 0.015533 2.887987
											CHANNELS 3 Xrotation Yrotation Zrotation
											JOINT RightHandIndex2
											{
												OFFSET -3.537502 0.000000 0.000000
												CHANNELS 3 Xrotation Yrotation Zrotation
												JOINT RightHandIndex3
												{
													OFFSET -3.356201 0.000000 0.000000
													CHANNELS 3 Xrotation Yrotation Zrotation
													JOINT RightHandIndex4
													{
														OFFSET -1.933098 0.000000 0.000000
														CHANNELS 3 Xrotation Yrotation Zrotation
														End Site
														{
															OFFSET 0.000000 0.000000 0.000000
														}
													}
												}
											}
										}
										JOINT RightHandMiddle1
										{
											OFFSET -8.178135 0.000000 0.000000
											CHANNELS 3 Xrotation Yrotation Zrotation
											JOINT RightHandMiddle2
											{
												OFFSET -3.901302 0.000000 0.000000
												CHANNELS 3 Xrotation Yrotation Zrotation
												JOINT RightHandMiddle3
												{
													OFFSET -3.909599 0.000000 0.000000
													CHANNELS 3 Xrotation Yrotation Zrotation
													JOINT RightHandMiddle4
													{
														OFFSET -2.376003 0.000000 0.000000
														CHANNELS 3 Xrotation Yrotation Zrotation
														End Site
														{
															OFFSET 0.000000 0.000000 0.000000
														}
													}
												}
											}
										}
										JOINT RightHandRing1
										{
											OFFSET -7.559013 0.014137 -2.865403
											CHANNELS 3 Xrotation Yrotation Zrotation
											JOINT RightHandRing2
											{
												OFFSET -3.449306 0.000000 0.000000
												CHANNELS 3 Xrotation Yrotation Zrotation
												JOINT RightHandRing3
												{
													OFFSET -3.362106 0.000000 0.000000
													CHANNELS 3 Xrotation Yrotation Zrotation
													JOINT RightHandRing4
													{
														OFFSET -2.076401 0.000000 0.000000
														CHANNELS 3 Xrotation Yrotation Zrotation
														End Site
														{
															OFFSET 0.000000 0.000000 0.000000
														}
													}
												}
											}
										}
									}
								}
							}
						}
					}
				}
			}
		}
	}
	JOINT LeftUpLeg
	{
		OFFSET 10.205400 -3.823500 0.155100
		CHANNELS 3 Xrotation Yrotation Zrotation
		JOINT LeftLeg
		{
			OFFSET 0.708757 -12.982077 0.567790
			CHANNELS 3 Xrotation Yrotation Zrotation
			JOINT LeftFoot
			{
				OFFSET -0.708756 -10.717838 -2.184338
				CHANNELS 3 Xrotation Yrotation Zrotation
				JOINT LeftToeBase
				{
					OFFSET 0.108149 -7.191104 7.560241
					CHANNELS 3 Xrotation Yrotation Zrotation
					JOINT LeftToe_End
					{
						OFFSET 0.070230 0.081724 4.490308
						CHANNELS 3 Xrotation Yrotation Zrotation
						End Site
						{
							OFFSET 0.000000 0.000000 0.000000
						}
					}
				}
			}
		}
	}
	JOINT RightUpLeg
	{
		OFFSET -10.205400 -3.823500 0.005500
		CHANNELS 3 Xrotation Yrotation Zrotation
		JOINT RightLeg
		{
			OFFSET -0.708756 -12.982134 0.610632
			CHANNELS 3 Xrotation Yrotation Zrotation
			JOINT RightFoot
			{
				OFFSET 0.708754 -10.717769 -1.945823
				CHANNELS 3 Xrotation Yrotation Zrotation
				JOINT RightToeBase
				{
					OFFSET -0.108140 -7.191069 7.372968
					CHANNELS 3 Xrotation Yrotation Zrotation
					JOINT RightToe_End
					{
						OFFSET -0.070227 0.081735 4.479403
						CHANNELS 3 Xrotation Yrotation Zrotation
						End Site
						{
							OFFSET 0.000000 0.000000 0.000000
						}
					}
				}
			}
		}
	}
}
MOTION
Frames: 4
Frame Time: 0.016667
3.885706 29.796291 -4.870630 55.104740 -6.960609 3.927119 6.426716 0.455115 -0.315462 15.063523 1.404745 -0.847226 0.000000 0.000000 0.000000 25.668435 1.557015 -0.177843 -24.368129 -0.913412 3.954656 -18.158078 5.659347 -4.296260 -0.000002 0.000000 -0.000000 3.359797 -11.332882 0.850106 0.000000 0.000000 0.000000 -25.850581 -35.679720 -27.707648 -0.000014 -43.985291 -0.000011 -8.602295 -8.370886 31.241176 0.699754 -6.020145 19.223936 19.074659 26.512433 -1.026366 3.271066 -0.981145 3.963652 -0.000003 0.000000 -0.000000 0.483443 4.482289 -23.673229 0.882576 3.094049 -31.835088 0.339553 1.967253 -19.583699 0.000001 0.000002 0.000001 2.472059 8.725186 -25.286112 1.505495 3.921804 -41.988834 0.476284 2.315672 -23.241424 0.000001 0.000001 0.000002 3.074501 8.498798 -34.787636 1.107470 3.429294 -35.785936 0.533247 2.443994 -24.613656 -0.000000 0.000001 -0.000001 0.611314 31.893640 8.610640 0.000000 0.000000 0.000000 -33.996823 35.443754 11.882227 0.000007 24.919377 -0.000014 0.648383 -4.749866 3.169651 -0.201456 3.035685 -7.196443 8.074866 6.487002 -14.042691 4.117375 15.542679 -37.393551 0.000003 0.000002 0.000001 -3.681002 8.704008 18.305344 -0.000015 0.000004 0.000001 0.115871 -1.033409 12.793106 -0.000004 0.000001 -0.000005 -0.122579 9.697893 1.310630 0.695577 -2.450421 31.689834 0.176465 -1.271098 15.805855 0.000000 0.000001 -0.000000 -0.568132 7.106779 4.105425 0.435122 -1.967349 24.939894 0.261902 -1.541274 19.286829 -0.000001 0.000002 -0.000002 -93.354848 -8.376757 9.132868 56.494875 7.060327 -5.163985 -13.749303 14.710820 -5.688638 -6.673059 0.000016 0.000002 -0.000000 -0.000002 -0.000000 -55.499501 7.183826 -8.806136 69.331181 4.653546 -4.832044 -12.014608 -4.615939 7.170597 -17.588418 -0.014708 0.967208 0.000001 0.000001 0.000000 
3.862354 30.136553 -4.587919 53.794532 -7.437918 3.860922 6.382466 0.428054 -0.290220 14.959057 1.376009 -0.738083 0.000000 0.000000 0.000000 25.530250 1.548437 -0.069472 -24.070889 -0.806834 3.898662 -17.895408 6.094574 -4.244756 0.000001 -0.000000 -0.000000 3.327530 -11.257747 0.298006 0.000000 0.000000 0.000000 -24.534524 -35.097316 -28.877995 -0.000012 -43.052776 0.000001 -8.185996 -8.336842 30.259046 0.699746 -6.020148 19.223931 19.074640 26.512438 -1.026327 3.271063 -0.981158 3.963644 -0.000001 -0.000001 -0.000001 0.483151 4.482395 -23.673103 0.882594 3.094065 -31.835198 0.339542 1.967247 -19.583710 0.000001 -0.000000 -0.000003 2.472248 8.725271 -25.287802 1.505375 3.921686 -41.987126 0.476283 2.315687 -23.241428 -0.000000 -0.000000 0.000001 3.074693 8.498867 -34.789586 1.107344 3.429150 -35.783986 0.533243 2.443968 -24.613642 0.000001 -0.000002 -0.000002 0.454144 31.771882 9.248684 0.000000 0.000000 0.000000 -33.054796 34.716878 13.055003 -0.000000 24.898765 -0.000024 0.795435 -4.377390 5.700455 -0.201467 3.035682 -7.196425 8.074872 6.487002 -14.042705 4.094455 15.548649 -37.387868 0.000001 -0.000002 -0.000002 -3.681001 8.703996 18.305339 -0.000004 0.000000 0.000010 0.115866 -1.033405 12.793106 0.000002 -0.000001 -0.000000 -0.122555 9.697897 1.310562 0.695588 -2.450418 31.689906 0.176454 -1.271105 15.805859 -0.000001 -0.000000 -0.000002 -0.568097 7.106791 4.105301 0.435108 -1.967344 24.940028 0.261916 -1.541278 19.286846 0.000001 -0.000001 -0.000004 -90.152159 -8.178632 9.585841 55.194649 6.978793 -5.264157 -14.261846 15.012148 -5.635400 -6.604069 0.000012 0.000000 -0.000000 -0.000002 -0.000000 -57.622747 7.439369 -8.761563 70.185344 3.936850 -4.526470 -13.006155 -4.628583 7.227366 -17.108444 -0.006875 0.659679 0.000001 0.000000 -0.000000 
3.836176 30.457996 -4.309204 52.455265 -7.933198 3.785398 6.342542 0.401460 -0.259685 14.862681 1.352665 -0.606153 0.000000 0.000000 0.000000 25.397830 1.548556 0.060527 -23.787326 -0.699832 3.812284 -17.607323 6.465525 -4.232233 -0.000003 -0.000000 -0.000000 3.282057 -11.154459 -0.322864 0.000000 0.000000 0.000000 -23.304165 -34.650137 -30.083333 0.000003 -41.915915 0.000003 -7.881260 -8.386923 29.199690 0.699743 -6.020151 19.223921 19.074640 26.512458 -1.026331 3.271075 -0.981156 3.963645 -0.000001 0.000003 -0.000002 0.482880 4.482506 -23.672988 0.882590 3.094071 -31.835300 0.339545 1.967243 -19.583711 0.000001 0.000000 -0.000001 2.472425 8.725378 -25.289508 1.505279 3.921546 -41.985439 0.476275 2.315666 -23.241418 -0.000002 -0.000001 0.000002 3.074898 8.498961 -34.791512 1.107226 3.428967 -35.782036 0.533255 2.443987 -24.613654 0.000001 -0.000002 -0.000001 0.383143 31.571559 9.612368 0.000000 0.000000 0.000000 -32.161903 33.923688 14.344963 -0.000003 24.743668 -0.000009 0.798859 -3.969756 7.957825 -0.201450 3.035676 -7.196438 8.074858 6.486997 -14.042702 4.071187 15.554748 -37.382090 0.000001 0.000001 -0.000005 -3.680989 8.703988 18.305327 0.000010 -0.000001 0.000003 0.115848 -1.033406 12.793095 0.000002 -0.000002 0.000001 -0.122529 9.697895 1.310506 0.695578 -2.450426 31.689947 0.176457 -1.271114 15.805860 0.000000 -0.000001 -0.000000 -0.568079 7.106786 4.105128 0.435109 -1.967352 24.940186 0.261908 -1.541279 19.286841 -0.000000 0.000001 -0.000002 -86.968273 -7.940282 10.071745 53.951237 6.859331 -5.387213 -14.792761 15.314724 -5.566970 -6.547643 0.000007 0.000001 0.000001 -0.000001 -0.000000 -59.355669 7.455915 -8.791249 70.153857 2.636836 -4.211291 -13.877978 -4.620380 7.159494 -16.694220 -0.002141 0.368454 -0.000001 -0.000000 -0.000000 
3.808532 30.761913 -4.032139 51.129830 -8.437347 3.675895 6.295928 0.379037 -0.226026 14.751834 1.342869 -0.457022 0.000000 0.000000 0.000000 25.248580 1.564636 0.205128 -23.519850 -0.601491 3.713252 -17.310556 6.769748 -4.222798 -0.000002 -0.000000 0.000001 3.231790 -11.021969 -0.952622 0.000000 0.000000 0.000000 -22.238217 -34.231576 -31.346644 0.000006 -40.754523 0.000003 -7.654835 -8.345734 28.070057 0.699745 -6.020132 19.223923 19.074637 26.512445 -1.026333 3.271081 -0.981150 3.963636 -0.000004 0.000003 -0.000003 0.482579 4.482610 -23.672826 0.882602 3.094090 -31.835430 0.339552 1.967260 -19.583696 -0.000000 0.000002 -0.000002 2.472612 8.725466 -25.291227 1.505155 3.921415 -41.983718 0.476262 2.315661 -23.241407 -0.000001 0.000002 -0.000001 3.075088 8.499035 -34.793469 1.107100 3.428819 -35.780048 0.533255 2.443981 -24.613650 -0.000000 -0.000002 -0.000001 0.372581 31.286419 9.795017 0.000000 0.000000 0.000000 -31.370557 33.055141 15.760105 -0.000000 24.457948 0.000014 0.679500 -3.567376 9.936547 -0.201459 3.035679 -7.196444 8.074881 6.487002 -14.042701 4.047549 15.560901 -37.376178 0.000001 0.000001 -0.000002 -3.680994 8.703994 18.305327 0.000002 -0.000001 0.000011 0.115867 -1.033413 12.793093 0.000003 0.000001 -0.000001 -0.122512 9.697889 1.310446 0.695584 -2.450434 31.689995 0.176455 -1.271096 15.805867 0.000001 0.000001 -0.000001 -0.568029 7.106801 4.104989 0.435130 -1.967370 24.940323 0.261907 -1.541280 19.286864 0.000000 0.000001 -0.000003 -83.852429 -7.678922 10.590389 52.759086 6.739115 -5.526273 -15.326765 15.571674 -5.496161 -6.482853 0.000009 0.000001 -0.000000 -0.000002 -0.000000 -60.735265 7.214117 -8.830154 69.319330 1.064676 -3.883305 -14.637536 -4.567236 6.893196 -16.124354 0.000099 0.000021 -0.000000 -0.000001 0.000000 
